<svg height="512pt" viewBox="-112 0 512 512" width="512pt" xmlns="http://www.w3.org/2000/svg"><path d="m247.066406 0h-207.066406c-22.054688 0-40 17.945312-40 40v400.128906c0 22.058594 17.945312 40 40 40h13.84375v16.871094c0 8.285156 6.714844 15 15 15s15-6.714844 15-15v-16.871094h119.378906v16.871094c0 8.285156 6.714844 15 15 15s15-6.714844 15-15v-16.871094h13.84375c22.054688 0 40-17.941406 40-40v-400.128906c0-22.054688-17.945312-40-40-40zm10 440.128906c0 5.515625-4.488281 10-10 10h-207.066406c-5.515625 0-10-4.484375-10-10v-400.128906c0-5.515625 4.484375-10 10-10h207.066406c5.511719 0 10 4.484375 10 10zm0 0"/><path d="m85.773438 115.9375h114.523437c8.285156 0 15-6.714844 15-15s-6.714844-15-15-15h-114.523437c-8.285157 0-15 6.714844-15 15s6.714843 15 15 15zm0 0"/><path d="m215.296875 161.6875c0-8.285156-6.714844-15-15-15h-114.523437c-8.285157 0-15 6.714844-15 15s6.714843 15 15 15h114.523437c8.285156 0 15-6.714844 15-15zm0 0"/><path d="m143.53125 386.460938c-3.933594 0-7.785156 1.589843-10.5625 4.367187-2.78125 2.789063-4.375 6.636719-4.375 10.570313 0 3.929687 1.59375 7.777343 4.375 10.566406 2.785156 2.777344 6.632812 4.371094 10.5625 4.371094 3.933594 0 7.777344-1.59375 10.566406-4.371094 2.78125-2.789063 4.375-6.636719 4.375-10.566406 0-3.933594-1.59375-7.78125-4.375-10.570313-2.789062-2.777344-6.628906-4.367187-10.566406-4.367187zm0 0"/></svg>