<svg id="Capa_1" enable-background="new 0 0 510.638 510.638" height="512" viewBox="0 0 510.638 510.638" width="512" xmlns="http://www.w3.org/2000/svg"><path id="XMLID_1408_" d="m392.999 120.795h-273.998v269.047h273.998zm-30 239.047h-213.998v-209.047h213.998z"/><path id="XMLID_1415_" d="m199.892 210.743h.329c8.284 0 15-6.716 15-15s-6.716-15-15-15h-.329c-8.284 0-15 6.716-15 15s6.716 15 15 15z"/><path id="XMLID_1416_" d="m257.829 210.743h.329c8.284 0 15-6.716 15-15s-6.716-15-15-15h-.329c-8.284 0-15 6.716-15 15s6.716 15 15 15z"/><path id="XMLID_1419_" d="m510.638 126.843v-30h-60.352v-32.173h-35.81v-60.351h-30v60.351h-41.738v-60.351h-30v60.351h-41.738v-60.351h-30v60.351h-41.738v-60.351h-30v60.351h-41.738v-60.351h-30v60.351h-35.81v32.173h-61.714v30h61.714v41.737h-61.714v30h61.714v41.738h-61.714v30h61.714v41.738h-61.714v30h61.714v41.737h-61.714v30h61.714v32.173h35.81v60.352h30v-60.352h41.738v60.352h30v-60.352h41.738v60.352h30v-60.352h41.738v60.352h30v-60.352h41.738v60.352h30v-60.352h35.81v-32.173h60.352v-30h-60.352v-41.737h60.352v-30h-60.352v-41.738h60.352v-30h-60.352v-41.738h60.352v-30h-60.352v-41.737zm-90.352 289.124h-328.572v-321.297h328.571v321.297z"/></svg>