<svg height="480pt" viewBox="-40 0 480 480" width="480pt" xmlns="http://www.w3.org/2000/svg"><path d="m376 480c13.253906 0 24-10.746094 24-24v-432c0-13.253906-10.746094-24-24-24h-352c-13.253906 0-24 10.746094-24 24v432c0 13.253906 10.746094 24 24 24zm-360-24v-432c0-4.417969 3.582031-8 8-8h352c4.417969 0 8 3.582031 8 8v432c0 4.417969-3.582031 8-8 8h-352c-4.417969 0-8-3.582031-8-8zm0 0"/><path d="m104.753906 338.320312-12.496094 6.609376c-2.621093 1.386718-4.257812 4.105468-4.257812 7.070312v40c0 4.417969 3.582031 8 8 8h56c2.585938 0 5.011719-1.25 6.511719-3.351562l21.390625-29.953126c6.667968.832032 13.378906 1.265626 20.097656 1.304688 83.121094.074219 153.824219-60.601562 166.367188-142.773438 12.539062-82.167968-36.839844-161.171874-116.199219-185.902343-79.355469-24.726563-164.875 12.242187-201.230469 86.992187s-12.636719 164.84375 55.816406 212.003906zm43.125 45.679688h-43.878906v-27.199219l101.792969-53.890625zm52.121094-336c83.949219 0 152 68.050781 152 152s-68.050781 152-152 152c-3.113281 0-6.230469-.160156-9.351562-.34375l47.863281-67.007812c2.160156-3.019532 1.957031-7.128907-.488281-9.921876-2.445313-2.792968-6.488282-3.539062-9.765626-1.796874l-107.328124 56.796874c-58.101563-35.476562-85.53125-105.257812-67.132813-170.800781 18.394531-65.542969 78.125-110.863281 146.203125-110.925781zm0 0"/><path d="m56 80c13.253906 0 24-10.746094 24-24s-10.746094-24-24-24-24 10.746094-24 24 10.746094 24 24 24zm0-32c4.417969 0 8 3.582031 8 8s-3.582031 8-8 8-8-3.582031-8-8 3.582031-8 8-8zm0 0"/><path d="m344 400c-13.253906 0-24 10.746094-24 24s10.746094 24 24 24 24-10.746094 24-24-10.746094-24-24-24zm0 32c-4.417969 0-8-3.582031-8-8s3.582031-8 8-8 8 3.582031 8 8-3.582031 8-8 8zm0 0"/><path d="m56 448c13.253906 0 24-10.746094 24-24s-10.746094-24-24-24-24 10.746094-24 24 10.746094 24 24 24zm0-32c4.417969 0 8 3.582031 8 8s-3.582031 8-8 8-8-3.582031-8-8 3.582031-8 8-8zm0 0"/><path d="m344 80c13.253906 0 24-10.746094 24-24s-10.746094-24-24-24-24 10.746094-24 24 10.746094 24 24 24zm0-32c4.417969 0 8 3.582031 8 8s-3.582031 8-8 8-8-3.582031-8-8 3.582031-8 8-8zm0 0"/><path d="m96 416h208v16h-208zm0 0"/><path d="m144 200c0 30.929688 25.070312 56 56 56s56-25.070312 56-56-25.070312-56-56-56c-30.914062.035156-55.964844 25.085938-56 56zm96 0c0 22.089844-17.910156 40-40 40s-40-17.910156-40-40 17.910156-40 40-40c22.082031.027344 39.972656 17.917969 40 40zm0 0"/><path d="m176 200c0 13.253906 10.746094 24 24 24s24-10.746094 24-24-10.746094-24-24-24-24 10.746094-24 24zm32 0c0 4.417969-3.582031 8-8 8s-8-3.582031-8-8 3.582031-8 8-8 8 3.582031 8 8zm0 0"/><path d="m200 104v-16c-61.828125.066406-111.933594 50.171875-112 112h16c.058594-52.996094 43.003906-95.941406 96-96zm0 0"/></svg>