<?xml version="1.0" encoding="iso-8859-1"?>
<!-- Generator: Adobe Illustrator 19.0.0, SVG Export Plug-In . SVG Version: 6.00 Build 0)  -->
<svg version="1.1" id="Layer_1" xmlns="http://www.w3.org/2000/svg" xmlns:xlink="http://www.w3.org/1999/xlink" x="0px" y="0px"
	 viewBox="0 0 512 512" style="enable-background:new 0 0 512 512;" xml:space="preserve">
<g>
	<g>
		<g>
			<rect x="242.151" y="184.058" width="15.687" height="80.023"/>
			<path d="M257.841,128.462v-16.427h-15.687v16.427c-62.458,4.055-112.035,56.149-112.035,119.615v144.045
				C130.12,458.223,183.897,512,249.998,512c66.101,0,119.878-53.777,119.878-119.878V248.077
				C369.876,184.612,320.299,132.516,257.841,128.462z M354.189,392.122c0,57.451-46.739,104.191-104.191,104.191
				s-104.191-46.74-104.191-104.191V248.077c0-57.451,46.739-104.191,104.191-104.191s104.191,46.74,104.191,104.191V392.122z"/>
			<path d="M274.005,87.868V72.181c-17.563,0-31.85,14.289-31.85,31.85h15.687C257.841,95.119,265.093,87.868,274.005,87.868z"/>
			<path d="M474.067,16.165H33.93c-8.913,0-16.164-7.251-16.164-16.165H2.08c0,17.563,14.287,31.85,31.85,31.85h440.137
				c11.12,0,20.166,9.046,20.166,20.165s-9.046,20.166-20.166,20.166H282.008v15.687h192.059c19.768,0,35.853-16.083,35.853-35.853
				C509.92,32.247,493.836,16.165,474.067,16.165z"/>
		</g>
	</g>
</g>
<g>
</g>
<g>
</g>
<g>
</g>
<g>
</g>
<g>
</g>
<g>
</g>
<g>
</g>
<g>
</g>
<g>
</g>
<g>
</g>
<g>
</g>
<g>
</g>
<g>
</g>
<g>
</g>
<g>
</g>
</svg>
