<?xml version="1.0" encoding="iso-8859-1"?>
<!-- Generator: Adobe Illustrator 18.1.1, SVG Export Plug-In . SVG Version: 6.00 Build 0)  -->
<svg version="1.1" id="Capa_1" xmlns="http://www.w3.org/2000/svg" xmlns:xlink="http://www.w3.org/1999/xlink" x="0px" y="0px"
	 viewBox="0 0 56.498 56.498" style="enable-background:new 0 0 56.498 56.498;" xml:space="preserve">
<g>
	<path style="fill:#010002;" d="M13.151,17.591l5.654,3.226c0.401,0.229,0.851,0.344,1.333,0.344c0.854,0,1.735-0.378,2.357-1.01
		c0.295-0.299,0.605-0.585,0.922-0.854c1.093-0.922,1.351-2.448,0.602-3.551l-3.53-5.206c-0.792-1.165-2.545-1.844-3.742-1.397
		c-2.901,1.087-4.334,3.231-5.025,4.84C11.154,15.306,12.019,16.948,13.151,17.591z M12.398,14.273
		c0.635-1.477,1.948-3.445,4.607-4.44c0.18-0.066,0.38-0.102,0.596-0.102c0.838,0,1.798,0.515,2.278,1.224l3.53,5.205
		c0.537,0.79,0.336,1.897-0.466,2.575c-0.335,0.282-0.661,0.584-0.973,0.899c-0.749,0.761-1.977,1.012-2.801,0.543l-5.655-3.226
		C12.656,16.463,11.994,15.213,12.398,14.273z M28.249,56.498c15.576,0,28.249-12.673,28.249-28.251
		C56.498,12.672,43.825,0,28.249,0S0,12.672,0,28.247C0,43.826,12.673,56.498,28.249,56.498z M28.249,2.5
		c14.198,0,25.749,11.55,25.749,25.747c0,14.199-11.551,25.751-25.749,25.751S2.5,42.446,2.5,28.247
		C2.5,14.05,14.051,2.5,28.249,2.5z M25.357,28.249c0,1.595,1.298,2.893,2.893,2.893s2.893-1.298,2.893-2.893
		c0-1.595-1.298-2.892-2.893-2.892C26.654,25.357,25.357,26.655,25.357,28.249z M28.249,30.2c-1.075,0-1.95-0.875-1.95-1.95
		s0.875-1.95,1.95-1.95c1.075,0,1.95,0.875,1.95,1.95S29.324,30.2,28.249,30.2z M27.749,17.776c0.276,0,0.5-0.224,0.5-0.5V6.709
		c0-0.276-0.224-0.5-0.5-0.5s-0.5,0.224-0.5,0.5v10.566C27.249,17.552,27.473,17.776,27.749,17.776z M19.901,28.249
		c0,4.604,3.745,8.349,8.349,8.349s8.349-3.745,8.349-8.349s-3.745-8.35-8.349-8.35S19.901,23.645,19.901,28.249z M35.81,28.249
		c0,4.169-3.392,7.561-7.561,7.561s-7.561-3.392-7.561-7.561s3.392-7.561,7.561-7.561S35.81,24.08,35.81,28.249z"/>
</g>
<g>
</g>
<g>
</g>
<g>
</g>
<g>
</g>
<g>
</g>
<g>
</g>
<g>
</g>
<g>
</g>
<g>
</g>
<g>
</g>
<g>
</g>
<g>
</g>
<g>
</g>
<g>
</g>
<g>
</g>
</svg>
