<?xml version="1.0" encoding="iso-8859-1"?>
<!-- Generator: Adobe Illustrator 18.0.0, SVG Export Plug-In . SVG Version: 6.00 Build 0)  -->
<!DOCTYPE svg PUBLIC "-//W3C//DTD SVG 1.1//EN" "http://www.w3.org/Graphics/SVG/1.1/DTD/svg11.dtd">
<svg version="1.1" id="Capa_1" xmlns="http://www.w3.org/2000/svg" xmlns:xlink="http://www.w3.org/1999/xlink" x="0px" y="0px"
	 viewBox="0 0 320 320" style="enable-background:new 0 0 320 320;" xml:space="preserve">
<g>
	<path d="M304.229,39.136H153v18.571h141.944v176.794h-15.146v-2.615c0-5.129-4.157-9.287-9.286-9.287
		c-5.128,0-9.285,4.158-9.285,9.287v2.615h-9.693v-2.615c0-5.129-4.157-9.287-9.285-9.287c-5.129,0-9.286,4.158-9.286,9.287v2.615
		H153v64.635h51.418c3.729,0,7.096-2.23,8.551-5.663c1.454-3.434,0.714-7.402-1.879-10.082c-0.11-0.112-9.545-10.375-13.629-30.319
		h106.769c5.129,0,9.286-4.156,9.286-9.285V48.422C313.516,43.293,309.358,39.136,304.229,39.136z"/>
	<path d="M130.794,0H11.484c-2.762,0-5,2.239-5,5v310c0,2.762,2.238,5,5,5h119.309c2.761,0,5-2.238,5-5V5
		C135.794,2.239,133.555,0,130.794,0z M85.316,266.053c0,7.817-6.359,14.178-14.178,14.178c-7.817,0-14.178-6.36-14.178-14.178
		v-16.316c0-7.817,6.36-14.177,14.178-14.177c7.818,0,14.178,6.359,14.178,14.177V266.053z M85.316,213.026
		c0,7.817-6.359,14.178-14.178,14.178c-7.817,0-14.178-6.36-14.178-14.178v-16.315c0-7.818,6.36-14.179,14.178-14.179
		c7.818,0,14.178,6.36,14.178,14.179V213.026z M108.732,139.928H33.545c-5.238,0-9.5-4.262-9.5-9.5c0-5.238,4.262-9.5,9.5-9.5
		h75.188c5.238,0,9.5,4.262,9.5,9.5C118.232,135.666,113.971,139.928,108.732,139.928z M108.732,99.139H33.545
		c-5.238,0-9.5-4.262-9.5-9.5c0-5.238,4.262-9.5,9.5-9.5h75.188c5.238,0,9.5,4.262,9.5,9.5
		C118.232,94.877,113.971,99.139,108.732,99.139z M108.732,58.349H33.545c-5.238,0-9.5-4.262-9.5-9.5c0-5.238,4.262-9.5,9.5-9.5
		h75.188c5.238,0,9.5,4.262,9.5,9.5C118.232,54.087,113.971,58.349,108.732,58.349z"/>
</g>
<g>
</g>
<g>
</g>
<g>
</g>
<g>
</g>
<g>
</g>
<g>
</g>
<g>
</g>
<g>
</g>
<g>
</g>
<g>
</g>
<g>
</g>
<g>
</g>
<g>
</g>
<g>
</g>
<g>
</g>
</svg>
