<svg id="Capa_1" enable-background="new 0 0 235.067 235.067" height="512" viewBox="0 0 235.067 235.067" width="512" xmlns="http://www.w3.org/2000/svg"><path d="m67.319 118.055c-6.598 2.116-11.84 10.386-12.408 17.763 3.467 4.263 7.91 7.687 12.98 9.963-3.205-7.855-3.373-17.199 1.117-23.906-.733-1.18-1.285-2.465-1.689-3.82z"/><path d="m74.023 100.35c1.175-.733 2.456-1.285 3.812-1.689-2.116-6.598-10.382-11.84-17.763-12.408-4.282 3.483-7.718 7.949-9.994 13.05 2.617-1.081 5.375-1.904 8.176-2.245 6.088-.751 11.545.436 15.769 3.292z"/><path d="m102.764 130.392c-4.67 0-8.846-1.226-12.235-3.51-1.175.737-2.46 1.285-3.82 1.689 2.116 6.598 10.382 11.84 17.763 12.408 4.282-3.483 7.718-7.949 9.994-13.05-2.617 1.081-5.375 1.904-8.176 2.245-1.199.147-2.378.218-3.526.218z"/><path d="m85.807 98.384c1.387.321 2.676.858 3.894 1.52 3.185-6.194.979-15.761-3.89-21.368-1.164-.118-2.343-.18-3.538-.18-4.431 0-8.654.858-12.564 2.355 7.812 3.286 14.527 9.763 16.098 17.673z"/><path d="m82.274 148.876c4.431 0 8.654-.858 12.564-2.355-7.812-3.287-14.527-9.763-16.098-17.673-1.387-.321-2.676-.858-3.894-1.52-3.185 6.194-.979 15.761 3.89 21.368 1.163.117 2.343.18 3.538.18z"/><path d="m97.228 109.177c6.598-2.116 11.836-10.386 12.408-17.763-3.463-4.263-7.91-7.687-12.98-9.963 3.205 7.855 3.373 17.199-1.117 23.906.733 1.179 1.285 2.465 1.689 3.82z"/><path d="m67.041 110.082c.317-1.371.846-2.648 1.501-3.859-2.539-1.297-5.771-1.818-9.344-1.387-4.505.545-8.866 2.507-12.004 5.242-.118 1.164-.18 2.343-.18 3.538 0 4.431.858 8.654 2.355 12.564 3.286-7.812 9.762-14.527 17.672-16.098z"/><path d="m161.068 110.082c.317-1.371.846-2.648 1.501-3.859-2.539-1.297-5.775-1.818-9.344-1.387-4.505.545-8.866 2.507-12.004 5.242-.118 1.164-.18 2.343-.18 3.538 0 4.431.858 8.654 2.355 12.564 3.286-7.812 9.762-14.527 17.672-16.098z"/><circle cx="82.274" cy="113.616" r="7.836"/><path d="m97.506 117.15c-.321 1.371-.85 2.652-1.504 3.859 2.539 1.301 5.775 1.822 9.344 1.383 4.505-.545 8.862-2.507 12.004-5.242.118-1.164.18-2.343.18-3.538 0-4.431-.854-8.654-2.355-12.564-3.283 7.816-9.759 14.531-17.669 16.102z"/><path d="m172.763 128.848c-1.387-.321-2.676-.858-3.894-1.52-3.185 6.194-.979 15.761 3.89 21.368 1.164.118 2.347.18 3.538.18 4.431 0 8.654-.858 12.564-2.355-7.808-3.287-14.523-9.763-16.098-17.673z"/><path d="m168.05 100.35c1.175-.733 2.456-1.285 3.812-1.689-2.116-6.598-10.382-11.84-17.763-12.408-4.282 3.483-7.718 7.949-9.994 13.05 2.617-1.081 5.375-1.904 8.176-2.245 6.088-.751 11.545.436 15.769 3.292z"/><path d="m196.791 130.392c-4.67 0-8.846-1.226-12.235-3.51-1.175.737-2.46 1.285-3.82 1.689 2.116 6.598 10.382 11.84 17.763 12.408 4.282-3.483 7.718-7.949 9.994-13.05-2.617 1.081-5.375 1.904-8.176 2.245-1.199.147-2.378.218-3.526.218z"/><path d="m161.346 118.055c-6.598 2.116-11.84 10.386-12.408 17.763 3.467 4.263 7.91 7.687 12.98 9.963-3.205-7.855-3.373-17.199 1.117-23.906-.733-1.18-1.285-2.465-1.689-3.82z"/><path d="m211.565 54.849h-180.223v-15.671c0-2.163-1.755-3.918-3.918-3.918h-23.506c-2.163 0-3.918 1.755-3.918 3.918s1.755 3.918 3.918 3.918h19.589v15.671 3.918h-11.754c-2.163 0-3.918 1.755-3.918 3.918s1.755 3.918 3.918 3.918h11.753v7.836h-11.753c-2.163 0-3.918 1.755-3.918 3.918v31.342c0 2.163 1.755 3.918 3.918 3.918h11.753v7.836h-11.753c-2.163 0-3.918 1.755-3.918 3.918s1.755 3.918 3.918 3.918h11.753v7.836h-11.753c-2.163 0-3.918 1.755-3.918 3.918v31.342c0 2.163 1.755 3.918 3.918 3.918h11.753v15.671c0 2.163 1.755 3.918 3.918 3.918s3.918-1.755 3.918-3.918v-19.589-3.918h19.589v23.507c0 2.163 1.755 3.918 3.918 3.918h86.191c2.163 0 3.918-1.755 3.918-3.918v-23.507h15.671v23.507c0 2.163 1.755 3.918 3.918 3.918h31.342c2.163 0 3.918-1.755 3.918-3.918v-23.507h11.757c12.96 0 23.503-10.543 23.503-23.503v-70.534c0-12.956-10.542-23.499-23.502-23.499zm-195.894 54.849v-23.507h7.836v23.507zm0 62.685v-23.507h7.836v19.589 3.918zm32.553-32.447c-.145-.137-.235-.317-.357-.474-5.43-7.213-8.694-16.145-8.694-25.846 0-1.877.165-3.714.407-5.614 1.512-11.534 7.589-21.63 16.365-28.431.141-.145.317-.235.478-.357 7.205-5.43 16.145-8.694 25.846-8.694 1.877 0 3.718.161 5.626.411 11.53 1.512 21.622 7.589 28.424 16.365.145.137.235.317.357.474 5.43 7.213 8.69 16.145 8.69 25.846 0 1.877-.161 3.714-.407 5.622 0 1.442-.49 3.056-.823 4.451-.353 1.477-.787 2.934-1.301 4.364-1.007 2.821-2.308 5.532-3.879 8.082-3.377 5.481-7.969 10.155-13.368 13.654-5.391 3.495-11.546 5.771-17.92 6.582-1.794.227-3.597.341-5.399.341-1.877 0-3.714-.161-5.622-.411-11.529-1.513-21.622-7.586-28.423-16.365zm88.899 52.036h-11.753v-7.836c0-2.163-1.755-3.918-3.918-3.918s-3.918 1.755-3.918 3.918v7.836h-7.836v-7.836c0-2.163-1.755-3.918-3.918-3.918s-3.918 1.755-3.918 3.918v7.836h-7.836v-7.836c0-2.163-1.755-3.918-3.918-3.918s-3.918 1.755-3.918 3.918v7.836h-7.836v-7.836c0-2.163-1.755-3.918-3.918-3.918s-3.918 1.755-3.918 3.918v7.836h-11.751v-19.589h78.356zm54.849 0h-7.836v-7.836c0-2.163-1.755-3.918-3.918-3.918s-3.918 1.755-3.918 3.918v7.836h-7.836v-19.589h23.507v19.589zm27.013-72.734c0 2.539-.995 5.438-1.787 7.828-.838 2.547-1.916 5.011-3.213 7.354-2.55 4.603-5.951 8.725-9.971 12.122-7.702 6.507-17.63 10.174-27.718 10.174-1.877 0-3.714-.161-5.622-.411-11.534-1.512-21.626-7.589-28.424-16.365-.145-.137-.235-.317-.357-.474-5.43-7.213-8.694-16.145-8.694-25.846 0-1.877.165-3.714.407-5.614 1.512-11.534 7.589-21.63 16.365-28.431.141-.145.317-.235.478-.357 7.209-5.43 16.145-8.694 25.846-8.694 1.877 0 3.718.161 5.626.411 11.53 1.512 21.622 7.589 28.424 16.365.145.137.235.317.357.474 5.43 7.213 8.69 16.145 8.69 25.846.004 1.873-.156 3.71-.407 5.618z"/><path d="m179.834 98.384c1.387.321 2.676.858 3.894 1.52 3.185-6.194.979-15.761-3.89-21.368-1.164-.118-2.343-.18-3.538-.18-4.431 0-8.654.858-12.564 2.355 7.812 3.286 14.527 9.763 16.098 17.673z"/><path d="m191.533 117.15c-.321 1.371-.85 2.652-1.504 3.859 2.539 1.301 5.775 1.822 9.344 1.383 4.505-.545 8.862-2.507 12.004-5.242.118-1.164.18-2.343.18-3.538 0-4.431-.854-8.654-2.355-12.564-3.283 7.816-9.759 14.531-17.669 16.102z"/><circle cx="176.301" cy="113.616" r="7.836"/><path d="m191.255 109.177c6.598-2.116 11.836-10.386 12.408-17.763-3.463-4.263-7.91-7.687-12.98-9.963 3.205 7.855 3.373 17.199-1.117 23.906.733 1.179 1.285 2.465 1.689 3.82z"/></svg>