<svg height="511pt" viewBox="1 -48 511.999 511" width="511pt" xmlns="http://www.w3.org/2000/svg"><path d="m506.890625 86.472656-24.105469-24.097656c-3.292968-3.292969-7.671875-5.105469-12.324218-5.105469h-60.761719c-4.144531 0-7.5 3.359375-7.5 7.5s3.355469 7.5 7.5 7.5h60.761719c.648437 0 1.261718.253907 1.722656.714844l24.105468 24.097656c.457032.457031.710938 1.070313.710938 1.71875v46.789063l-86.382812 32.402344v-4.171876c0-4.660156-1.8125-9.039062-5.105469-12.332031l-47.726563-47.726562c-3.296875-3.292969-7.671875-5.105469-12.332031-5.105469h-67.492187c-4.65625 0-9.035157 1.8125-12.328126 5.105469l-13.203124 13.203125c-2.929688 2.929687-2.929688 7.679687 0 10.605468 2.925781 2.929688 7.675781 2.929688 10.605468 0l13.203125-13.199218c.453125-.453125 1.082031-.714844 1.722657-.714844h26.246093v22.273438c-28.257812 3.417968-50.71875 25.875-54.136719 54.136718h-22.269531v-26.25c0-.648437.25-1.261718.710938-1.722656l9.496093-9.492188c2.929688-2.929687 2.929688-7.679687 0-10.605468-2.929687-2.929688-7.679687-2.929688-10.605468 0l-9.496094 9.492187c-3.292969 3.292969-5.105469 7.671875-5.105469 12.332031v67.492188c0 4.65625 1.8125 9.035156 5.105469 12.328125l47.726562 47.726563c3.292969 3.292968 7.671876 5.105468 12.328126 5.105468h67.492187c4.65625 0 9.035156-1.8125 12.328125-5.105468l47.726562-47.726563c3.292969-3.292969 5.105469-7.671875 5.105469-12.328125v-4.171875l86.386719 32.402344v46.785156c0 .652344-.253906 1.261719-.714844 1.722656l-24.101562 24.097657c-.460938.460937-1.074219.714843-1.722656.714843h-232.359376l-78.738281-78.742187v-22.636719c0-9.613281-7.824219-17.433594-17.4375-17.433594h-32.238281v-32.96875h32.238281c9.613281 0 17.4375-7.824219 17.4375-17.4375v-22.636719l78.738281-78.738281h136.203126c4.140624 0 7.5-3.359375 7.5-7.5s-3.359376-7.5-7.5-7.5h-264.617188v-21.449219c0-19.476562-15.84375-35.320312-35.320312-35.320312-9.613282 0-17.433594 7.820312-17.433594 17.433594v14.996094h-10.300782c-4.144531 0-7.5 3.359374-7.5 7.5 0 4.144531 3.355469 7.5 7.5 7.5h10.300782v10.164062h-11.292969c-9.613281 0-17.4375 7.824219-17.4375 17.4375v40.734375c0 9.617187 7.824219 17.4375 17.4375 17.4375h11.292969v10.164063h-10.300782c-4.140624 0-7.5 3.355468-7.5 7.5 0 4.140624 3.359376 7.5 7.5 7.5h10.300782v35.03125h-5.75c-4.140625 0-7.5 3.355468-7.5 7.5 0 4.140624 3.359375 7.5 7.5 7.5h5.75v11.824218h-5.75c-4.140625 0-7.5 3.359375-7.5 7.5 0 4.144532 3.359375 7.5 7.5 7.5h5.75v17.5h-38.503906c-4.140626 0-7.5 3.359375-7.5 7.5 0 4.144532 3.359374 7.5 7.5 7.5h9.886718v10.164063h-10.878906c-9.617188 0-17.4375 7.820312-17.4375 17.4375v40.734375c0 9.613281 7.820312 17.4375 17.4375 17.4375h10.878906v10.164062h-9.886718c-4.144532 0-7.5 3.355469-7.5 7.5 0 4.140625 3.355468 7.5 7.5 7.5h38.503906v18.035156c0 9.613282 7.820312 17.4375 17.433594 17.4375 19.476562 0 35.320312-15.84375 35.320312-35.320312v-21.449219h73.984375v19.101563c0 9.613281 7.820313 17.4375 17.433594 17.4375h51.953125c9.613281 0 17.433594-7.820313 17.433594-17.433594v-19.105469h20.53125v19.105469c0 9.613281 7.820312 17.433594 17.4375 17.433594h129.777343.058594 5.570313c9.617187 0 17.4375-7.824219 17.4375-17.4375v-19.101563h9.15625c4.652343 0 9.03125-1.816406 12.324218-5.105469l24.105469-24.097656c3.292969-3.292968 5.109375-7.671875 5.109375-12.332031v-217.527344c0-4.65625-1.8125-9.035156-5.109375-12.328125zm-360.332031 56.128906c-1.40625 1.40625-2.195313 3.3125-2.195313 5.300782v25.746094c0 1.339843-1.09375 2.433593-2.4375 2.433593h-32.238281v-103.808593h107.199219zm-100.917969-23.898437c-1.34375 0-2.4375-1.09375-2.4375-2.4375v-40.734375c0-1.34375 1.09375-2.4375 2.4375-2.4375h11.292969v45.609375zm-28.203125 220.292969c-1.34375 0-2.4375-1.09375-2.4375-2.4375v-40.734375c0-1.34375 1.09375-2.4375 2.4375-2.4375h10.878906v45.609375zm25.878906 25.164062v-95.9375h13.617188v95.9375zm51.371094 15.152344c0 11.203125-9.113281 20.320312-20.320312 20.320312-1.34375 0-2.433594-1.09375-2.433594-2.4375v-379.261718c0-1.339844 1.089844-2.433594 2.433594-2.433594 11.207031 0 20.320312 9.113281 20.320312 20.320312v227.046876c0 4.140624 3.359375 7.5 7.5 7.5s7.5-3.359376 7.5-7.5v-23.816407h32.238281c1.34375 0 2.4375 1.089844 2.4375 2.433594v25.742187c0 1.992188.789063 3.898438 2.195313 5.304688l70.332031 70.328125h-107.203125v-44.59375c0-4.144531-3.355469-7.5-7.5-7.5-4.140625 0-7.5 3.355469-7.5 7.5zm103.984375-21.453125h16.132813v19.105469c0 1.339844-1.09375 2.433594-2.4375 2.433594h-11.261719c-1.34375 0-2.433594-1.09375-2.433594-2.433594zm56.820313 19.109375c0 1.339844-1.09375 2.433594-2.433594 2.433594h-23.445313c.113281-.796875.191407-1.609375.191407-2.4375v-19.101563h25.6875zm50.53125 0v-19.105469h109.148437v19.101563c0 .828125.078125 1.640625.191406 2.4375h-106.902343c-1.34375 0-2.4375-1.09375-2.4375-2.433594zm140.28125-.003906c0 1.339844-1.09375 2.433594-2.4375 2.433594h-11.257813c-1.34375 0-2.4375-1.09375-2.4375-2.433594v-19.105469h16.132813zm-100.851563-253.308594c.640625 0 1.269531.261719 1.722656.714844l47.726563 47.726562c.460937.457032.714844 1.070313.714844 1.722656v26.246094h-22.273438c-3.417969-28.257812-25.878906-50.71875-54.136719-54.136718v-22.273438zm-65.960937 91.410156c2.847656 12.226563 12.488281 21.867188 24.714843 24.714844v14.285156c-19.976562-3.210937-35.792969-19.023437-39.003906-39zm32.214843-25.582031c9.972657 0 18.082031 8.109375 18.082031 18.082031 0 9.96875-8.109374 18.082032-18.082031 18.082032-9.972656 0-18.082031-8.113282-18.082031-18.082032 0-9.972656 8.109375-18.082031 18.082031-18.082031zm7.5 50.296875c12.226563-2.847656 21.867188-12.488281 24.714844-24.714844h14.285156c-3.210937 19.976563-19.023437 35.789063-39 39zm24.714844-39.714844c-2.847656-12.226562-12.488281-21.867187-24.714844-24.714844v-14.285156c19.976563 3.210938 35.789063 19.023438 39.003907 39zm-39.714844-39.003906v14.289062c-12.226562 2.84375-21.867187 12.484376-24.714843 24.714844h-14.285157c3.207031-19.976562 19.023438-35.792968 39-39.003906zm-27.96875 129.699219-47.726562-47.726563c-.460938-.460937-.710938-1.074218-.710938-1.722656v-26.246094h22.269531c3.417969 28.257813 25.878907 50.714844 54.136719 54.136719v22.269531h-26.246093c-.640626 0-1.269532-.257812-1.722657-.710937zm118.664063-47.726563-47.726563 47.726563c-.453125.453125-1.082031.710937-1.722656.710937h-26.246094v-22.269531c28.257813-3.421875 50.714844-25.878906 54.136719-54.136719h22.269531v26.246094c0 .648438-.25 1.261719-.710937 1.722656zm15.710937-21.914062v-27.109375l86.386719-32.402344v38.457031h-32.242188c-4.144531 0-7.5 3.355469-7.5 7.5 0 4.140625 3.355469 7.5 7.5 7.5h32.242188v38.453125zm0 0"/><path d="m132.242188 107.734375h14.574218c4.140625 0 7.5-3.359375 7.5-7.5 0-4.144531-3.359375-7.5-7.5-7.5h-14.574218c-4.140626 0-7.5 3.355469-7.5 7.5 0 4.140625 3.359374 7.5 7.5 7.5zm0 0"/><path d="m132.242188 322.398438h14.574218c4.140625 0 7.5-3.359376 7.5-7.5 0-4.140626-3.359375-7.5-7.5-7.5h-14.574218c-4.140626 0-7.5 3.359374-7.5 7.5 0 4.140624 3.359374 7.5 7.5 7.5zm0 0"/></svg>